<svg xmlns="http://www.w3.org/2000/svg" viewBox="0 0 512 512">
  <defs>
    <linearGradient id="grad" x1="0%" y1="0%" x2="100%" y2="100%">
      <stop offset="0%" stop-color="#818CF8" />
      <stop offset="100%" stop-color="#2DD4BF" />
    </linearGradient>
    <filter id="glow" x="-20%" y="-20%" width="140%" height="140%">
      <feGaussianBlur stdDeviation="20" result="blur" />
      <feComposite in="SourceGraphic" in2="blur" operator="over" />
    </filter>
  </defs>
  <rect width="512" height="512" rx="128" fill="#0F172A" />
  <path d="M256 128 C 176 128, 128 176, 128 256 C 128 336, 176 384, 256 384 C 336 384, 384 336, 384 256 C 384 176, 336 128, 256 128 Z M256 160 C 316 160, 352 196, 352 256 C 352 316, 316 352, 256 352 C 196 352, 160 316, 160 256 C 160 196, 196 160, 256 160 Z" fill="url(#grad)" filter="url(#glow)"/>
  <circle cx="256" cy="256" r="48" fill="url(#grad)" filter="url(#glow)"/>
</svg>
